<svg xmlns="http://www.w3.org/2000/svg" xmlns:xlink="http://www.w3.org/1999/xlink" width="80" zoomAndPan="magnify" viewBox="0 0 60 60" height="80" preserveAspectRatio="xMidYMid meet" version="1.2"><defs><clipPath id="72f915726d"><path d="M 1.367188 2.210938 L 57.171875 2.210938 L 57.171875 57 L 1.367188 57 Z M 1.367188 2.210938 "/></clipPath><clipPath id="660657f1aa"><path d="M 44.207031 28.738281 C 39.398438 25.472656 33.246094 26.804688 30.019531 31.71875 C 27.320312 35.820312 23.25 36.328125 21.671875 36.328125 C 16.53125 36.328125 13.015625 32.710938 11.972656 28.972656 L 11.96875 28.972656 L 11.953125 28.902344 L 11.921875 28.785156 C 11.503906 27.179688 11.398438 26.433594 11.398438 24.777344 C 11.398438 15.828125 20.578125 5.871094 33.800781 5.871094 C 47.339844 5.871094 55.085938 16.175781 57.074219 21.902344 L 57.011719 21.703125 C 53.132812 10.394531 42.507812 2.339844 30 2.339844 C 14.257812 2.339844 1.496094 15.101562 1.496094 30.847656 C 1.496094 44.917969 11.644531 56.964844 25.722656 56.964844 C 36.953125 56.964844 44.5 50.667969 47.964844 41.992188 C 49.863281 37.246094 48.515625 31.667969 44.207031 28.738281 "/></clipPath><clipPath id="5b99022459"><path d="M 11.386719 5.855469 L 58.535156 5.855469 L 58.535156 57.789062 L 11.386719 57.789062 Z M 11.386719 5.855469 "/></clipPath><clipPath id="df190c42d4"><path d="M 57.25 22.460938 C 55.585938 16.871094 47.785156 5.871094 33.792969 5.871094 C 20.574219 5.871094 11.394531 15.828125 11.394531 24.777344 C 11.394531 26.433594 11.496094 27.183594 11.90625 28.738281 C 11.730469 28.058594 11.644531 27.375 11.644531 26.707031 C 11.644531 17.390625 20.972656 10.933594 30.5625 10.933594 C 43.546875 10.933594 54.066406 21.457031 54.066406 34.4375 C 54.066406 44.613281 48.210938 53.421875 39.699219 57.652344 L 39.703125 57.660156 C 50.675781 53.6875 58.503906 43.183594 58.503906 30.847656 C 58.503906 27.925781 58.113281 25.351562 57.25 22.460938 "/></clipPath></defs><g id="0c75b4d728"><g clip-rule="nonzero" clip-path="url(#72f915726d)"><g clip-rule="nonzero" clip-path="url(#660657f1aa)"><path style=" stroke:none;fill-rule:nonzero;fill:#003964;fill-opacity:1;" d="M 0 0.84375 L 59.902344 0.84375 L 59.902344 59.152344 L 0 59.152344 Z M 0 0.84375 "/></g></g><g clip-rule="nonzero" clip-path="url(#5b99022459)"><g clip-rule="nonzero" clip-path="url(#df190c42d4)"><path style=" stroke:none;fill-rule:nonzero;fill:#ed1a3a;fill-opacity:1;" d="M 0 0.84375 L 59.902344 0.84375 L 59.902344 59.152344 L 0 59.152344 Z M 0 0.84375 "/></g></g></g></svg>